<mxfile host="app.diagrams.net" agent="Mozilla/5.0 (Macintosh; Intel Mac OS X 10_15_7) AppleWebKit/537.36 (KHTML, like Gecko) Chrome/128.0.0.0 Safari/537.36" version="24.7.16">
  <diagram name="Page-1" id="8WzZ1ltBB6KLTCqdqxxq">
    <mxGraphModel dx="2304" dy="1675" grid="1" gridSize="10" guides="1" tooltips="1" connect="1" arrows="1" fold="1" page="1" pageScale="1" pageWidth="850" pageHeight="1100" math="0" shadow="0">
      <root>
        <mxCell id="0" />
        <mxCell id="1" parent="0" />
        <mxCell id="J7WZmaP1XGHd8BYNLcnK-23" style="edgeStyle=orthogonalEdgeStyle;rounded=0;orthogonalLoop=1;jettySize=auto;html=1;" edge="1" parent="1" source="J7WZmaP1XGHd8BYNLcnK-1" target="J7WZmaP1XGHd8BYNLcnK-7">
          <mxGeometry relative="1" as="geometry" />
        </mxCell>
        <mxCell id="J7WZmaP1XGHd8BYNLcnK-1" value="" style="ellipse;shape=cloud;whiteSpace=wrap;html=1;" vertex="1" parent="1">
          <mxGeometry x="10" y="565" width="120" height="80" as="geometry" />
        </mxCell>
        <mxCell id="J7WZmaP1XGHd8BYNLcnK-4" value="" style="rounded=0;whiteSpace=wrap;html=1;" vertex="1" parent="1">
          <mxGeometry x="310" y="90" width="1530" height="960" as="geometry" />
        </mxCell>
        <mxCell id="J7WZmaP1XGHd8BYNLcnK-5" value="" style="outlineConnect=0;dashed=0;verticalLabelPosition=bottom;verticalAlign=top;align=center;html=1;shape=mxgraph.aws3.virtual_private_cloud;fillColor=#F58534;gradientColor=none;" vertex="1" parent="1">
          <mxGeometry x="310" y="90" width="79.5" height="54" as="geometry" />
        </mxCell>
        <mxCell id="J7WZmaP1XGHd8BYNLcnK-27" value="" style="edgeStyle=orthogonalEdgeStyle;rounded=0;orthogonalLoop=1;jettySize=auto;html=1;" edge="1" parent="1" source="J7WZmaP1XGHd8BYNLcnK-6" target="J7WZmaP1XGHd8BYNLcnK-26">
          <mxGeometry relative="1" as="geometry" />
        </mxCell>
        <mxCell id="J7WZmaP1XGHd8BYNLcnK-6" value="" style="rounded=1;whiteSpace=wrap;html=1;fillStyle=dots;dashed=1;dashPattern=8 8;" vertex="1" parent="1">
          <mxGeometry x="540" y="275" width="250" height="660" as="geometry" />
        </mxCell>
        <mxCell id="J7WZmaP1XGHd8BYNLcnK-24" style="edgeStyle=orthogonalEdgeStyle;rounded=0;orthogonalLoop=1;jettySize=auto;html=1;" edge="1" parent="1" source="J7WZmaP1XGHd8BYNLcnK-7" target="J7WZmaP1XGHd8BYNLcnK-21">
          <mxGeometry relative="1" as="geometry" />
        </mxCell>
        <mxCell id="J7WZmaP1XGHd8BYNLcnK-7" value="" style="outlineConnect=0;dashed=0;verticalLabelPosition=bottom;verticalAlign=top;align=center;html=1;shape=mxgraph.aws3.internet_gateway;fillColor=#F58534;gradientColor=none;" vertex="1" parent="1">
          <mxGeometry x="275.5" y="569" width="69" height="72" as="geometry" />
        </mxCell>
        <mxCell id="J7WZmaP1XGHd8BYNLcnK-8" value="" style="sketch=0;outlineConnect=0;fontColor=#232F3E;gradientColor=none;fillColor=#ED7100;strokeColor=none;dashed=0;verticalLabelPosition=bottom;verticalAlign=top;align=center;html=1;fontSize=12;fontStyle=0;aspect=fixed;pointerEvents=1;shape=mxgraph.aws4.auto_scaling2;" vertex="1" parent="1">
          <mxGeometry x="617" y="700" width="96" height="96" as="geometry" />
        </mxCell>
        <mxCell id="J7WZmaP1XGHd8BYNLcnK-9" value="" style="outlineConnect=0;dashed=0;verticalLabelPosition=bottom;verticalAlign=top;align=center;html=1;shape=mxgraph.aws3.ec2;fillColor=#F58534;gradientColor=none;" vertex="1" parent="1">
          <mxGeometry x="626.75" y="558.5" width="76.5" height="93" as="geometry" />
        </mxCell>
        <mxCell id="J7WZmaP1XGHd8BYNLcnK-16" value="" style="sketch=0;outlineConnect=0;fontColor=#232F3E;gradientColor=none;fillColor=#8C4FFF;strokeColor=none;dashed=0;verticalLabelPosition=bottom;verticalAlign=top;align=center;html=1;fontSize=12;fontStyle=0;aspect=fixed;pointerEvents=1;shape=mxgraph.aws4.endpoints;" vertex="1" parent="1">
          <mxGeometry x="311.5" y="187" width="78" height="78" as="geometry" />
        </mxCell>
        <mxCell id="J7WZmaP1XGHd8BYNLcnK-37" style="edgeStyle=orthogonalEdgeStyle;rounded=0;orthogonalLoop=1;jettySize=auto;html=1;" edge="1" parent="1" source="J7WZmaP1XGHd8BYNLcnK-17" target="J7WZmaP1XGHd8BYNLcnK-19">
          <mxGeometry relative="1" as="geometry" />
        </mxCell>
        <mxCell id="J7WZmaP1XGHd8BYNLcnK-17" value="" style="rounded=1;arcSize=10;dashed=0;fillColor=none;gradientColor=none;strokeWidth=2;" vertex="1" parent="1">
          <mxGeometry x="1005" y="265" width="305" height="665" as="geometry" />
        </mxCell>
        <mxCell id="J7WZmaP1XGHd8BYNLcnK-18" value="" style="dashed=0;html=1;shape=mxgraph.aws3.permissions;fillColor=#D9A741;gradientColor=none;dashed=0;" vertex="1" parent="1">
          <mxGeometry x="1142.5" y="241.5" width="30" height="35" as="geometry" />
        </mxCell>
        <mxCell id="J7WZmaP1XGHd8BYNLcnK-19" value="" style="rounded=1;arcSize=10;dashed=0;fillColor=none;gradientColor=none;strokeWidth=2;" vertex="1" parent="1">
          <mxGeometry x="1420" y="265" width="270" height="670" as="geometry" />
        </mxCell>
        <mxCell id="J7WZmaP1XGHd8BYNLcnK-20" value="" style="dashed=0;html=1;shape=mxgraph.aws3.permissions;fillColor=#D9A741;gradientColor=none;dashed=0;" vertex="1" parent="1">
          <mxGeometry x="1540" y="241.5" width="30" height="35" as="geometry" />
        </mxCell>
        <mxCell id="J7WZmaP1XGHd8BYNLcnK-25" style="edgeStyle=orthogonalEdgeStyle;rounded=0;orthogonalLoop=1;jettySize=auto;html=1;" edge="1" parent="1" source="J7WZmaP1XGHd8BYNLcnK-21" target="J7WZmaP1XGHd8BYNLcnK-6">
          <mxGeometry relative="1" as="geometry" />
        </mxCell>
        <mxCell id="J7WZmaP1XGHd8BYNLcnK-21" value="" style="outlineConnect=0;dashed=0;verticalLabelPosition=bottom;verticalAlign=top;align=center;html=1;shape=mxgraph.aws3.classic_load_balancer;fillColor=#F58534;gradientColor=none;" vertex="1" parent="1">
          <mxGeometry x="420" y="569" width="69" height="72" as="geometry" />
        </mxCell>
        <mxCell id="J7WZmaP1XGHd8BYNLcnK-28" value="" style="edgeStyle=orthogonalEdgeStyle;rounded=0;orthogonalLoop=1;jettySize=auto;html=1;" edge="1" parent="1" source="J7WZmaP1XGHd8BYNLcnK-26" target="J7WZmaP1XGHd8BYNLcnK-17">
          <mxGeometry relative="1" as="geometry" />
        </mxCell>
        <mxCell id="J7WZmaP1XGHd8BYNLcnK-26" value="" style="outlineConnect=0;dashed=0;verticalLabelPosition=bottom;verticalAlign=top;align=center;html=1;shape=mxgraph.aws3.classic_load_balancer;fillColor=#F58534;gradientColor=none;" vertex="1" parent="1">
          <mxGeometry x="860" y="478" width="69" height="72" as="geometry" />
        </mxCell>
        <mxCell id="J7WZmaP1XGHd8BYNLcnK-29" value="" style="shadow=0;dashed=0;html=1;strokeColor=none;fillColor=#EF8F21;labelPosition=center;verticalLabelPosition=bottom;verticalAlign=top;align=center;outlineConnect=0;shape=mxgraph.veeam.unlocked;" vertex="1" parent="1">
          <mxGeometry x="644.2" y="250" width="41.6" height="34.8" as="geometry" />
        </mxCell>
        <mxCell id="J7WZmaP1XGHd8BYNLcnK-30" value="" style="outlineConnect=0;dashed=0;verticalLabelPosition=bottom;verticalAlign=top;align=center;html=1;shape=mxgraph.aws3.route_table;fillColor=#F58536;gradientColor=none;" vertex="1" parent="1">
          <mxGeometry x="1010" y="410" width="75" height="69" as="geometry" />
        </mxCell>
        <mxCell id="J7WZmaP1XGHd8BYNLcnK-36" style="edgeStyle=orthogonalEdgeStyle;rounded=0;orthogonalLoop=1;jettySize=auto;html=1;" edge="1" parent="1" source="J7WZmaP1XGHd8BYNLcnK-32" target="J7WZmaP1XGHd8BYNLcnK-21">
          <mxGeometry relative="1" as="geometry" />
        </mxCell>
        <mxCell id="J7WZmaP1XGHd8BYNLcnK-32" value="" style="outlineConnect=0;dashed=0;verticalLabelPosition=bottom;verticalAlign=top;align=center;html=1;shape=mxgraph.aws3.route_table;fillColor=#F58536;gradientColor=none;" vertex="1" parent="1">
          <mxGeometry x="540" y="410" width="75" height="69" as="geometry" />
        </mxCell>
        <mxCell id="J7WZmaP1XGHd8BYNLcnK-34" value="" style="edgeStyle=orthogonalEdgeStyle;rounded=0;orthogonalLoop=1;jettySize=auto;html=1;" edge="1" parent="1" source="J7WZmaP1XGHd8BYNLcnK-33" target="J7WZmaP1XGHd8BYNLcnK-32">
          <mxGeometry relative="1" as="geometry" />
        </mxCell>
        <mxCell id="J7WZmaP1XGHd8BYNLcnK-35" style="edgeStyle=orthogonalEdgeStyle;rounded=0;orthogonalLoop=1;jettySize=auto;html=1;" edge="1" parent="1" source="J7WZmaP1XGHd8BYNLcnK-33" target="J7WZmaP1XGHd8BYNLcnK-30">
          <mxGeometry relative="1" as="geometry" />
        </mxCell>
        <mxCell id="J7WZmaP1XGHd8BYNLcnK-33" value="" style="outlineConnect=0;dashed=0;verticalLabelPosition=bottom;verticalAlign=top;align=center;html=1;shape=mxgraph.aws3.vpc_nat_gateway;fillColor=#F58534;gradientColor=none;" vertex="1" parent="1">
          <mxGeometry x="750" y="310" width="69" height="72" as="geometry" />
        </mxCell>
        <mxCell id="J7WZmaP1XGHd8BYNLcnK-38" value="" style="image;html=1;image=img/lib/clip_art/computers/Database_128x128.png" vertex="1" parent="1">
          <mxGeometry x="1513.25" y="460" width="80" height="80" as="geometry" />
        </mxCell>
        <mxCell id="J7WZmaP1XGHd8BYNLcnK-39" value="" style="outlineConnect=0;dashed=0;verticalLabelPosition=bottom;verticalAlign=top;align=center;html=1;shape=mxgraph.aws3.ec2;fillColor=#F58534;gradientColor=none;" vertex="1" parent="1">
          <mxGeometry x="1515" y="558.5" width="76.5" height="93" as="geometry" />
        </mxCell>
        <mxCell id="J7WZmaP1XGHd8BYNLcnK-53" style="edgeStyle=orthogonalEdgeStyle;rounded=0;orthogonalLoop=1;jettySize=auto;html=1;entryX=0.5;entryY=1;entryDx=0;entryDy=0;dashed=1;dashPattern=8 8;" edge="1" parent="1" source="J7WZmaP1XGHd8BYNLcnK-40" target="J7WZmaP1XGHd8BYNLcnK-17">
          <mxGeometry relative="1" as="geometry" />
        </mxCell>
        <mxCell id="J7WZmaP1XGHd8BYNLcnK-40" value="Business &amp;amp; Client launch template" style="verticalAlign=top;align=left;shape=cube;size=10;direction=south;fontStyle=0;html=1;boundedLbl=1;spacingLeft=5;whiteSpace=wrap;" vertex="1" parent="1">
          <mxGeometry x="1057.5" y="1180" width="200" height="240" as="geometry" />
        </mxCell>
        <mxCell id="J7WZmaP1XGHd8BYNLcnK-41" value="Node1" style="verticalAlign=top;align=center;shape=cube;size=10;direction=south;html=1;boundedLbl=1;spacingLeft=5;whiteSpace=wrap;" vertex="1" parent="J7WZmaP1XGHd8BYNLcnK-40">
          <mxGeometry width="100" height="80" relative="1" as="geometry">
            <mxPoint x="10" y="50" as="offset" />
          </mxGeometry>
        </mxCell>
        <mxCell id="J7WZmaP1XGHd8BYNLcnK-45" value="Autoscale group: Frontend&lt;div&gt;Min: 1, max 4&lt;/div&gt;" style="text;html=1;align=center;verticalAlign=middle;whiteSpace=wrap;rounded=0;" vertex="1" parent="J7WZmaP1XGHd8BYNLcnK-40">
          <mxGeometry x="12.75" y="130" width="167.25" height="100" as="geometry" />
        </mxCell>
        <mxCell id="J7WZmaP1XGHd8BYNLcnK-54" style="edgeStyle=orthogonalEdgeStyle;rounded=0;orthogonalLoop=1;jettySize=auto;html=1;dashed=1;dashPattern=8 8;" edge="1" parent="1" source="J7WZmaP1XGHd8BYNLcnK-43" target="J7WZmaP1XGHd8BYNLcnK-6">
          <mxGeometry relative="1" as="geometry" />
        </mxCell>
        <mxCell id="J7WZmaP1XGHd8BYNLcnK-43" value="Frontend launch template" style="verticalAlign=top;align=left;shape=cube;size=10;direction=south;fontStyle=0;html=1;boundedLbl=1;spacingLeft=5;whiteSpace=wrap;" vertex="1" parent="1">
          <mxGeometry x="565" y="1180" width="200" height="250" as="geometry" />
        </mxCell>
        <mxCell id="J7WZmaP1XGHd8BYNLcnK-44" value="Node1" style="verticalAlign=top;align=center;shape=cube;size=10;direction=south;html=1;boundedLbl=1;spacingLeft=5;whiteSpace=wrap;" vertex="1" parent="J7WZmaP1XGHd8BYNLcnK-43">
          <mxGeometry width="100" height="80" relative="1" as="geometry">
            <mxPoint x="10" y="50" as="offset" />
          </mxGeometry>
        </mxCell>
        <mxCell id="J7WZmaP1XGHd8BYNLcnK-46" value="Autoscale group: Frontend&lt;div&gt;Min: 1, Max: 4&lt;/div&gt;" style="text;html=1;align=center;verticalAlign=middle;whiteSpace=wrap;rounded=0;" vertex="1" parent="J7WZmaP1XGHd8BYNLcnK-43">
          <mxGeometry x="10" y="150" width="180" height="80" as="geometry" />
        </mxCell>
        <mxCell id="J7WZmaP1XGHd8BYNLcnK-48" value="" style="rounded=1;whiteSpace=wrap;html=1;fillColor=none;dashed=1;dashPattern=8 8;" vertex="1" parent="1">
          <mxGeometry x="1057.5" y="340" width="200" height="260" as="geometry" />
        </mxCell>
        <mxCell id="J7WZmaP1XGHd8BYNLcnK-47" value="" style="rounded=1;whiteSpace=wrap;html=1;fillColor=none;dashed=1;dashPattern=8 8;" vertex="1" parent="1">
          <mxGeometry x="1059.5" y="630" width="200" height="260" as="geometry" />
        </mxCell>
        <mxCell id="J7WZmaP1XGHd8BYNLcnK-49" value="" style="outlineConnect=0;dashed=0;verticalLabelPosition=bottom;verticalAlign=top;align=center;html=1;shape=mxgraph.aws3.ec2;fillColor=#F58534;gradientColor=none;" vertex="1" parent="1">
          <mxGeometry x="1121.25" y="360" width="76.5" height="93" as="geometry" />
        </mxCell>
        <mxCell id="J7WZmaP1XGHd8BYNLcnK-50" value="" style="sketch=0;outlineConnect=0;fontColor=#232F3E;gradientColor=none;fillColor=#ED7100;strokeColor=none;dashed=0;verticalLabelPosition=bottom;verticalAlign=top;align=center;html=1;fontSize=12;fontStyle=0;aspect=fixed;pointerEvents=1;shape=mxgraph.aws4.auto_scaling2;" vertex="1" parent="1">
          <mxGeometry x="1111.5" y="479" width="96" height="96" as="geometry" />
        </mxCell>
        <mxCell id="J7WZmaP1XGHd8BYNLcnK-51" value="" style="sketch=0;outlineConnect=0;fontColor=#232F3E;gradientColor=none;fillColor=#ED7100;strokeColor=none;dashed=0;verticalLabelPosition=bottom;verticalAlign=top;align=center;html=1;fontSize=12;fontStyle=0;aspect=fixed;pointerEvents=1;shape=mxgraph.aws4.auto_scaling2;" vertex="1" parent="1">
          <mxGeometry x="1111.5" y="770" width="96" height="96" as="geometry" />
        </mxCell>
        <mxCell id="J7WZmaP1XGHd8BYNLcnK-52" value="" style="outlineConnect=0;dashed=0;verticalLabelPosition=bottom;verticalAlign=top;align=center;html=1;shape=mxgraph.aws3.ec2;fillColor=#F58534;gradientColor=none;" vertex="1" parent="1">
          <mxGeometry x="1121.25" y="651.5" width="76.5" height="93" as="geometry" />
        </mxCell>
        <mxCell id="J7WZmaP1XGHd8BYNLcnK-56" style="edgeStyle=orthogonalEdgeStyle;rounded=0;orthogonalLoop=1;jettySize=auto;html=1;entryX=0.5;entryY=0;entryDx=0;entryDy=0;entryPerimeter=0;" edge="1" parent="1" source="J7WZmaP1XGHd8BYNLcnK-16" target="J7WZmaP1XGHd8BYNLcnK-18">
          <mxGeometry relative="1" as="geometry">
            <Array as="points">
              <mxPoint x="1158" y="222" />
            </Array>
          </mxGeometry>
        </mxCell>
        <mxCell id="J7WZmaP1XGHd8BYNLcnK-57" style="edgeStyle=orthogonalEdgeStyle;rounded=0;orthogonalLoop=1;jettySize=auto;html=1;entryX=0.5;entryY=0;entryDx=0;entryDy=0;entryPerimeter=0;" edge="1" parent="1" source="J7WZmaP1XGHd8BYNLcnK-16" target="J7WZmaP1XGHd8BYNLcnK-20">
          <mxGeometry relative="1" as="geometry">
            <Array as="points">
              <mxPoint x="351" y="180" />
              <mxPoint x="1555" y="180" />
            </Array>
          </mxGeometry>
        </mxCell>
        <mxCell id="J7WZmaP1XGHd8BYNLcnK-58" value="Public subnet" style="text;html=1;align=center;verticalAlign=middle;whiteSpace=wrap;rounded=0;fontSize=20;" vertex="1" parent="1">
          <mxGeometry x="566.25" y="890" width="197.5" height="30" as="geometry" />
        </mxCell>
        <mxCell id="J7WZmaP1XGHd8BYNLcnK-59" value="Private subnet" style="text;html=1;align=center;verticalAlign=middle;whiteSpace=wrap;rounded=0;fontSize=20;" vertex="1" parent="1">
          <mxGeometry x="1470" y="890" width="197.5" height="30" as="geometry" />
        </mxCell>
        <mxCell id="J7WZmaP1XGHd8BYNLcnK-60" value="Private subnet" style="text;html=1;align=center;verticalAlign=middle;whiteSpace=wrap;rounded=0;fontSize=20;" vertex="1" parent="1">
          <mxGeometry x="1057.5" y="890" width="197.5" height="30" as="geometry" />
        </mxCell>
      </root>
    </mxGraphModel>
  </diagram>
</mxfile>
